HIERARCHY
ROOT Hips
{
	OFFSET 0.00000 0.00000 0.00000
	CHANNELS 6 Xposition Yposition Zposition Zrotation Yrotation Xrotation 
	JOINT LHipJoint
	{
		OFFSET 0 0 0
		CHANNELS 3 Zrotation Yrotation Xrotation
		JOINT LeftUpLeg
		{
			OFFSET 1.27966 -1.91611 0.81506
			CHANNELS 3 Zrotation Yrotation Xrotation
			JOINT LeftLeg
			{
				OFFSET 2.49511 -6.85528 0.00000
				CHANNELS 3 Zrotation Yrotation Xrotation
				JOINT LeftFoot
				{
					OFFSET 2.67286 -7.34045 0.00000
					CHANNELS 3 Zrotation Yrotation Xrotation
					JOINT LeftToeBase
					{
						OFFSET 0.22740 -0.62477 2.32102
						CHANNELS 3 Zrotation Yrotation Xrotation
						End Site
						{
							OFFSET 0.00000 -0.00000 1.20480
						}
					}
				}
			}
		}
	}
	JOINT RHipJoint
	{
		OFFSET 0 0 0
		CHANNELS 3 Zrotation Yrotation Xrotation
		JOINT RightUpLeg
		{
			OFFSET -1.09666 -1.91611 0.81505
			CHANNELS 3 Zrotation Yrotation Xrotation
			JOINT RightLeg
			{
				OFFSET -2.51373 -6.90642 0.00000
				CHANNELS 3 Zrotation Yrotation Xrotation
				JOINT RightFoot
				{
					OFFSET -2.70173 -7.42295 0.00000
					CHANNELS 3 Zrotation Yrotation Xrotation
					JOINT RightToeBase
					{
						OFFSET -0.22214 -0.61032 2.18267
						CHANNELS 3 Zrotation Yrotation Xrotation
						End Site
						{
							OFFSET -0.00000 -0.00000 1.13683
						}
					}
				}
			}
		}
	}
	JOINT LowerBack
	{
		OFFSET 0 0 0
		CHANNELS 3 Zrotation Yrotation Xrotation
		JOINT Spine
		{
			OFFSET -0.00990 2.16804 -0.08389
			CHANNELS 3 Zrotation Yrotation Xrotation
			JOINT Spine1
			{
				OFFSET 0.06407 2.15456 0.07285
				CHANNELS 3 Zrotation Yrotation Xrotation
				JOINT Neck
				{
					OFFSET 0 0 0
					CHANNELS 3 Zrotation Yrotation Xrotation
					JOINT Neck1
					{
						OFFSET -0.16931 1.61602 0.24462
						CHANNELS 3 Zrotation Yrotation Xrotation
						JOINT Head
						{
							OFFSET 0.21556 1.63376 -0.33896
							CHANNELS 3 Zrotation Yrotation Xrotation
							End Site
							{
								OFFSET 0.08444 1.69244 -0.14900
							}
						}
					}
				}
				JOINT LeftShoulder
				{
					OFFSET 0 0 0
					CHANNELS 3 Zrotation Yrotation Xrotation
					JOINT LeftArm
					{
						OFFSET 2.89000 1.40150 -0.54392
						CHANNELS 3 Zrotation Yrotation Xrotation
						JOINT LeftForeArm
						{
							OFFSET 5.10755 -0.00000 0.00000
							CHANNELS 3 Zrotation Yrotation Xrotation
							JOINT LeftHand
							{
								OFFSET 3.36253 -0.00000 0.00000
								CHANNELS 3 Zrotation Yrotation Xrotation
								JOINT LeftFingerBase
								{
									OFFSET 0 0 0
									CHANNELS 3 Zrotation Yrotation Xrotation
									JOINT LeftHandIndex1
									{
										OFFSET 0.61909 -0.00000 0.00000
										CHANNELS 3 Zrotation Yrotation Xrotation
										End Site
										{
											OFFSET 0.49912 -0.00000 0.00000
										}
									}
								}
								JOINT LThumb
								{
									OFFSET 0 0 0
									CHANNELS 3 Zrotation Yrotation Xrotation
									End Site
									{
										OFFSET 0.50675 -0.00000 0.50675
									}
								}
							}
						}
					}
				}
				JOINT RightShoulder
				{
					OFFSET 0 0 0
					CHANNELS 3 Zrotation Yrotation Xrotation
					JOINT RightArm
					{
						OFFSET -2.65771 1.70968 -0.54312
						CHANNELS 3 Zrotation Yrotation Xrotation
						JOINT RightForeArm
						{
							OFFSET -5.27387 -0.00000 0.00000
							CHANNELS 3 Zrotation Yrotation Xrotation
							JOINT RightHand
							{
								OFFSET -3.40144 -0.00000 0.00000
								CHANNELS 3 Zrotation Yrotation Xrotation
								JOINT RightFingerBase
								{
									OFFSET 0 0 0
									CHANNELS 3 Zrotation Yrotation Xrotation
									JOINT RightHandIndex1
									{
										OFFSET -0.74282 -0.00000 0.00000
										CHANNELS 3 Zrotation Yrotation Xrotation
										End Site
										{
											OFFSET -0.59888 -0.00000 0.00000
										}
									}
								}
								JOINT RThumb
								{
									OFFSET 0 0 0
									CHANNELS 3 Zrotation Yrotation Xrotation
									End Site
									{
										OFFSET -0.60803 -0.00000 0.60803
									}
								}
							}
						}
					}
				}
			}
		}
	}
}
MOTION
Frames: 12
Frame Time: .0083333
0.4847 18.3673 -5.6613 0 0 0 0 0 0 -21 0 0 0 0 0 0 0 0 0 0 0 0 0 0 21 0 0 0 0 0 0 0 0 0 0 0 0 0 0 0 0 0 0 0 0 0 0 -16 0 0 21 0 0 11 0 0 0 -8 0 0 0 0 0 0 0 0 0 0 0 0 0 0 0 0 0 0 0 0 8 0 0 0 0 0 0 0 0 0 0 0 0 0 0 0 0 0
0.4847 18.3673 -5.6613 -1.0044 -0.0895 0.0499 0.0000 0.0000 0.0000 -17.8050 -0.6864 -2.8236 0.7334 5.4714 15.2582 0.2035 -5.4636 -8.3343 0.4002 -4.0618 -11.2505 0.0000 0.0000 0.0000 21.0036 4.0133 -4.4706 -1.2272 -7.0260 19.7924 -0.3986 -2.3753 -13.0335 -0.5891 4.9139 -13.6632 -0.1859 -0.5141 8.8424 4.2969 -0.4263 -1.6808 4.7022 -0.1091 -6.7098 -15.9570 -6.9648 -19.0946 10.5103 -7.6536 22.1838 5.3264 -3.6057 11.4425 0.0000 -0.0000 0.0000 -92.9629 9.7306 20.7744 16.7744 -26.5595 -3.9860 -0.0000 -0.0000 4.2685 11.3266 26.8391 5.1674 -7.1250 0.0000 -0.0000 -20.3150 56.0979 -5.6965 0.0000 -0.0000 0.0000 84.3121 -4.7970 8.5601 -12.5102 20.5654 -2.2783 0.0000 0.0000 6.7933 -21.4770 15.2110 -5.8938 7.1250 -0.0000 -0.0000 4.1271 -13.7227 3.0383
0.5042 18.3693 -5.6638 -1.0037 -0.3118 -0.0008 0.0000 0.0000 0.0000 -17.8749 -0.5021 -2.7819 0.7270 5.4481 15.1911 0.2066 -5.4547 -8.3870 0.4045 -4.0830 -11.3103 0.0000 0.0000 0.0000 20.9262 4.0418 -4.3725 -1.2154 -6.9931 19.6950 -0.3981 -2.2138 -12.9350 -0.5696 4.8336 -13.4346 -0.1430 -0.4355 8.9151 4.2295 -0.3221 -1.5923 4.5900 -0.0627 -6.6662 -15.8953 -7.0328 -19.4203 10.6279 -7.7519 22.2419 5.3428 -3.6225 11.5451 0.0000 0.0000 0.0000 -92.7730 9.6752 20.7990 16.8824 -26.7025 -4.0343 -0.0000 -0.0000 3.9048 11.3383 27.4538 5.2816 -7.1250 0.0000 -0.0000 -20.6971 56.6746 -6.1037 0.0000 0.0000 0.0000 84.4335 -4.8519 8.6281 -12.5641 20.6452 -2.2973 0.0000 0.0000 6.8050 -21.6626 13.9472 -5.4685 7.1250 -0.0000 -0.0000 3.9372 -15.0432 2.7871
0.5172 18.3711 -5.6633 -1.0797 -0.2684 -0.0723 0.0000 0.0000 0.0000 -17.8149 -0.3957 -2.6963 0.7195 5.4203 15.1112 0.1996 -5.5959 -8.2999 0.4080 -4.1003 -11.3591 0.0000 0.0000 0.0000 20.9886 3.9769 -4.2341 -1.2022 -6.9566 19.5870 -0.3990 -2.2622 -12.9744 -0.5387 4.7029 -13.0630 -0.1036 -0.4823 8.9730 4.2221 -0.3827 -1.5003 4.5673 -0.0962 -6.5967 -15.7504 -7.0689 -19.6752 10.6151 -7.8071 22.2847 5.3022 -3.6295 11.6117 -0.0000 -0.0000 0.0000 -92.6420 9.4943 20.5523 16.8064 -26.6018 -4.0003 -0.0000 -0.0000 3.8936 11.1795 27.6020 5.2319 -7.1250 0.0000 -0.0000 -20.9545 56.7800 -6.2386 -0.0000 -0.0000 0.0000 84.4877 -4.6916 8.5868 -12.4680 20.5028 -2.2635 0.0000 0.0000 6.9947 -21.6336 11.9358 -4.6891 7.1250 -0.0000 -0.0000 3.8731 -17.1868 2.5616
0.5291 18.3722 -5.6580 -1.1526 -0.1598 -0.1830 0.0000 0.0000 0.0000 -17.7569 -0.3157 -2.5329 0.7125 5.3944 15.0370 0.1915 -5.7181 -8.1904 0.4207 -4.1630 -11.5358 0.0000 0.0000 0.0000 21.0545 3.8770 -4.0487 -1.1932 -6.9313 19.5121 -0.3974 -2.3807 -13.0183 -0.5282 4.6573 -12.9337 -0.1514 -0.5794 8.9930 4.2982 -0.5142 -1.4608 4.6943 -0.1585 -6.5550 -15.8235 -7.0435 -19.6257 10.6455 -7.7681 22.3394 5.3356 -3.6171 11.6218 0.0000 -0.0000 0.0000 -92.7206 9.4051 20.0419 16.7134 -26.4784 -3.9587 -0.0000 -0.0000 3.7768 11.0567 27.4007 5.1387 -7.1250 0.0000 -0.0000 -20.9460 56.5676 -6.1266 0.0000 -0.0000 0.0000 84.4156 -4.5896 8.1709 -12.1833 20.0789 -2.1648 0.0000 0.0000 7.3032 -21.4271 12.8738 -4.9971 7.1250 -0.0000 -0.0000 4.0521 -16.2081 2.7670
0.5425 18.3718 -5.6557 -1.1946 -0.2049 -0.2676 0.0000 0.0000 0.0000 -17.7452 -0.1532 -2.4341 0.7098 5.3844 15.0084 0.1890 -5.7911 -8.1655 0.4291 -4.2038 -11.6507 0.0000 0.0000 0.0000 21.0654 3.8785 -3.8930 -1.1856 -6.9100 19.4491 -0.3941 -2.4391 -13.0046 -0.5330 4.6779 -12.9922 -0.2165 -0.6280 9.1062 4.3726 -0.5776 -1.5062 4.8248 -0.1834 -6.6619 -16.0401 -6.9916 -19.4700 10.7705 -7.6911 22.4151 5.4387 -3.5926 11.6244 -0.0000 0.0000 0.0000 -92.8666 9.5554 19.5134 16.7700 -26.5536 -3.9840 -0.0000 -0.0000 3.4646 11.1638 27.2086 5.1561 -7.1250 0.0000 -0.0000 -20.7136 56.4104 -5.9745 -0.0000 0.0000 0.0000 84.3468 -4.6572 7.6299 -11.9342 19.7060 -2.0801 0.0000 0.0000 7.8667 -21.4446 14.2544 -5.5243 7.1250 -0.0000 -0.0000 4.1007 -14.7405 2.9300
0.5600 18.3720 -5.6577 -1.1024 -0.2792 -0.2667 0.0000 0.0000 0.0000 -17.9165 -0.0846 -2.4202 0.7092 5.3823 15.0022 0.1919 -5.7956 -8.2176 0.4317 -4.2167 -11.6871 0.0000 0.0000 0.0000 20.8736 3.7831 -3.9128 -1.1793 -6.8922 19.3965 -0.3935 -2.3403 -12.9386 -0.6367 5.1052 -14.2089 -0.3612 -0.6234 9.1399 4.3681 -0.5880 -1.5043 4.9051 -0.1828 -6.6769 -16.1309 -6.9794 -19.3364 10.8644 -7.6833 22.2796 5.4890 -3.5878 11.5543 0.0000 0.0000 0.0000 -92.8965 9.6709 19.2918 16.9357 -26.7729 -4.0583 -0.0000 -0.0000 3.3520 11.1823 27.5492 5.2241 -7.1250 0.0000 -0.0000 -20.9169 56.7315 -6.2018 0.0000 0.0000 0.0000 84.3389 -4.7515 7.4392 -11.9094 19.6687 -2.0717 0.0000 0.0000 8.2613 -21.4860 14.0757 -5.4684 7.1250 -0.0000 -0.0000 4.0639 -14.9255 2.8875
0.5767 18.3725 -5.6652 -1.1402 -0.4957 -0.2369 0.0000 0.0000 0.0000 -17.9407 -0.0204 -2.4436 0.7074 5.3754 14.9824 0.1962 -5.6891 -8.2642 0.4368 -4.2408 -11.7552 0.0000 0.0000 0.0000 20.8369 3.7949 -4.0002 -1.1775 -6.8872 19.3817 -0.3882 -2.2766 -12.8244 -0.6907 5.3130 -14.8034 -0.4218 -0.5507 9.1024 4.3939 -0.4993 -1.4337 4.9513 -0.1387 -6.5876 -16.0510 -7.0173 -19.1611 10.8084 -7.7523 21.9496 5.4326 -3.6184 11.4003 -0.0000 -0.0000 0.0000 -92.8476 9.4996 19.0994 16.8186 -26.6180 -4.0057 -0.0000 -0.0000 3.6301 11.3482 27.2015 5.2418 -7.1250 0.0000 -0.0000 -20.5237 56.4411 -5.9319 -0.0000 -0.0000 0.0000 84.3610 -4.8345 7.5486 -12.0285 19.8474 -2.1120 0.0000 0.0000 8.2852 -21.1936 15.1774 -5.7965 7.1250 -0.0000 -0.0000 4.3166 -13.7908 3.1724
0.5914 18.3742 -5.6731 -1.3365 -0.8499 -0.1646 0.0000 0.0000 0.0000 -17.7722 0.0946 -2.5081 0.7031 5.3595 14.9369 0.1989 -5.4868 -8.2608 0.4371 -4.2422 -11.7591 0.0000 0.0000 0.0000 21.0003 3.9827 -4.1189 -1.1804 -6.8955 19.4061 -0.3831 -2.2893 -12.7563 -0.6649 5.2148 -14.5224 -0.3227 -0.4443 9.0371 4.4424 -0.3458 -1.3868 4.9213 -0.0677 -6.5146 -15.9085 -7.1051 -19.0240 10.6537 -7.8867 21.7194 5.3196 -3.6853 11.2948 -0.0000 0.0000 0.0000 -92.7163 9.3838 19.1132 16.7526 -26.5304 -3.9762 -0.0000 -0.0000 3.4112 11.4205 27.1849 5.2729 -7.1250 0.0000 -0.0000 -20.4403 56.4403 -5.9059 -0.0000 0.0000 0.0000 84.4624 -4.7156 7.3754 -11.9734 19.7648 -2.0933 0.0000 0.0000 8.0676 -21.2425 16.4242 -6.2723 7.1250 -0.0000 -0.0000 4.3522 -12.4675 3.3198
0.6067 18.3781 -5.6741 -1.3243 -0.9269 -0.0945 0.0000 0.0000 0.0000 -17.8451 0.0652 -2.5221 0.6968 5.3360 14.8693 0.1989 -5.3739 -8.2341 0.4352 -4.2334 -11.7342 0.0000 0.0000 0.0000 20.9147 3.9758 -4.2357 -1.1841 -6.9057 19.4364 -0.3860 -2.2452 -12.7735 -0.7559 5.5529 -15.4924 -0.3694 -0.4520 9.0050 4.4358 -0.3619 -1.4035 4.9430 -0.0739 -6.5124 -15.9273 -7.1355 -19.0173 10.6559 -7.9267 21.7260 5.3168 -3.7052 11.3034 -0.0000 -0.0000 0.0000 -92.6460 9.4813 19.1165 16.9514 -26.7937 -4.0654 -0.0000 -0.0000 2.8853 11.2017 27.8310 5.2823 -7.1250 0.0000 -0.0000 -21.0846 56.9977 -6.3923 -0.0000 -0.0000 0.0000 84.5057 -4.5643 6.9301 -11.8180 19.5312 -2.0411 0.0000 0.0000 8.2707 -21.2277 16.6271 -6.3422 7.1250 -0.0000 -0.0000 4.3740 -12.2552 3.3559
0.6244 18.3797 -5.6722 -1.2354 -0.8533 -0.1088 0.0000 0.0000 0.0000 -18.0206 -0.0069 -2.3969 0.6845 5.2896 14.7365 0.1995 -5.3424 -8.2373 0.4491 -4.2995 -11.9208 0.0000 0.0000 0.0000 20.7343 3.8081 -4.2787 -1.1884 -6.9180 19.4726 -0.3907 -2.1609 -12.7964 -0.5797 4.8755 -13.5538 -0.4477 -0.5418 9.1188 4.4106 -0.4891 -1.4392 4.9831 -0.1321 -6.6035 -16.1081 -7.1314 -19.1047 10.8688 -7.9162 21.8415 5.4339 -3.6906 11.3807 0.0000 -0.0000 0.0000 -92.6193 9.5996 18.8980 17.0950 -26.9828 -4.1303 -0.0000 -0.0000 2.7031 11.2128 27.8117 5.2843 -7.1250 0.0000 -0.0000 -21.0606 56.9821 -6.3765 0.0000 -0.0000 0.0000 84.4712 -4.7428 7.0524 -11.7712 19.4606 -2.0254 0.0000 0.0000 7.9920 -21.1716 17.3739 -6.5971 7.1250 -0.0000 -0.0000 4.4569 -11.4749 3.4920
0.6467 18.3786 -5.6698 -1.2047 -0.8866 -0.1437 0.0000 0.0000 0.0000 -18.1561 -0.0079 -2.2229 0.6676 5.2254 14.5525 0.2001 -5.2601 -8.2276 0.4637 -4.3678 -12.1139 0.0000 0.0000 0.0000 20.5902 3.5679 -4.3503 -1.1942 -6.9341 19.5202 -0.3942 -1.9855 -12.7519 -0.6137 5.0138 -13.9479 -0.4044 -0.5793 9.1637 4.3567 -0.5381 -1.4032 4.9079 -0.1597 -6.5870 -16.1709 -7.1847 -19.3037 10.9810 -7.9805 21.9837 5.4790 -3.7082 11.4914 0.0000 -0.0000 0.0000 -92.4955 9.6362 18.8358 17.2200 -27.1469 -4.1872 -0.0000 -0.0000 2.5164 11.2105 27.9595 5.3089 -7.1250 0.0000 -0.0000 -21.1622 57.1189 -6.4801 0.0000 -0.0000 0.0000 84.5477 -4.9786 7.8220 -12.1400 20.0143 -2.1500 0.0000 0.0000 7.5018 -21.1125 14.6617 -5.5818 7.1250 -0.0000 -0.0000 4.3460 -14.3453 3.1429
